<?xml version="1.0" encoding="UTF-8" standalone="no"?>
<!DOCTYPE svg PUBLIC "-//W3C//DTD SVG 1.1//EN"
 "http://www.w3.org/Graphics/SVG/1.1/DTD/svg11.dtd">
<!-- Generated by graphviz version 2.38.0 (20140413.2041)
 -->
<!-- Title: %3 Pages: 1 -->
<svg width="470pt" height="355pt"
 viewBox="0.00 0.00 469.89 355.00" xmlns="http://www.w3.org/2000/svg" xmlns:xlink="http://www.w3.org/1999/xlink">
<g id="graph0" class="graph" transform="scale(1 1) rotate(0) translate(4 351)">
<title>%3</title>
<polygon fill="#333333" stroke="none" points="-4,4 -4,-351 465.891,-351 465.891,4 -4,4"/>
<text text-anchor="middle" x="230.946" y="-9.2" font-family="Times,serif" font-size="16.00" fill="white">Network Map</text>
<!-- R4 -->
<g id="node1" class="node"><title>R4</title>
<polygon fill="#006699" stroke="#006699" points="93.391,-347 16.391,-347 16.391,-274 93.391,-274 93.391,-347"/>
<text text-anchor="middle" x="54.891" y="-306.8" font-family="Helvetica,sans-Serif" font-size="14.00" fill="white">R4</text>
</g>
<!-- R3 -->
<g id="node2" class="node"><title>R3</title>
<polygon fill="#006699" stroke="#006699" points="154.391,-223 77.391,-223 77.391,-150 154.391,-150 154.391,-223"/>
<text text-anchor="middle" x="115.891" y="-182.8" font-family="Helvetica,sans-Serif" font-size="14.00" fill="white">R3</text>
</g>
<!-- R3&#45;&#45;R4 -->
<g id="edge1" class="edge"><title>R3&#45;&#45;R4</title>
<path fill="none" stroke="green" stroke-dasharray="5,2" d="M77.3181,-213.341C68.7047,-221.136 60.7052,-230.464 55.891,-241 51.294,-251.061 49.9051,-262.852 50,-273.788"/>
<text text-anchor="middle" x="105.891" y="-244.8" font-family="Courier,monospace" font-size="14.00" fill="white"> &#160;&#160;&#160;&#160;&#160;&#160;&#160;&#160;&#160;&#160;&#160;</text>
<text text-anchor="middle" x="25" y="-262.588" font-family="Courier,monospace" font-size="14.00" fill="white">Eth0/0</text>
<text text-anchor="middle" x="52.3181" y="-202.141" font-family="Courier,monospace" font-size="14.00" fill="white">Eth0/1</text>
</g>
<!-- R5 -->
<g id="node5" class="node"><title>R5</title>
<polygon fill="#006699" stroke="#006699" points="216.391,-347 139.391,-347 139.391,-274 216.391,-274 216.391,-347"/>
<text text-anchor="middle" x="177.891" y="-306.8" font-family="Helvetica,sans-Serif" font-size="14.00" fill="white">R5</text>
</g>
<!-- R3&#45;&#45;R5 -->
<g id="edge4" class="edge"><title>R3&#45;&#45;R5</title>
<path fill="none" stroke="green" stroke-dasharray="5,2" d="M145.126,-223.279C149.066,-229.007 152.807,-235.023 155.891,-241 161.161,-251.212 165.484,-262.931 168.861,-273.755"/>
<text text-anchor="middle" x="212.891" y="-244.8" font-family="Courier,monospace" font-size="14.00" fill="white"> &#160;&#160;&#160;&#160;&#160;&#160;&#160;&#160;&#160;&#160;&#160;</text>
<text text-anchor="middle" x="143.861" y="-262.555" font-family="Courier,monospace" font-size="14.00" fill="white">Eth0/0</text>
<text text-anchor="middle" x="120.126" y="-227.079" font-family="Courier,monospace" font-size="14.00" fill="white">Eth0/2</text>
</g>
<!-- SW1 -->
<g id="node3" class="node"><title>SW1</title>
<polygon fill="#006699" stroke="#006699" points="284.891,-99 192.891,-99 192.891,-26 284.891,-26 284.891,-99"/>
<text text-anchor="middle" x="238.891" y="-58.8" font-family="Helvetica,sans-Serif" font-size="14.00" fill="white">SW1</text>
</g>
<!-- SW1&#45;&#45;R3 -->
<g id="edge3" class="edge"><title>SW1&#45;&#45;R3</title>
<path fill="none" stroke="green" stroke-dasharray="5,2" d="M192.675,-77.7195C172.31,-86.1442 149.694,-98.8107 134.891,-117 127.335,-126.285 122.777,-138.368 120.03,-149.796"/>
<text text-anchor="middle" x="184.891" y="-120.8" font-family="Courier,monospace" font-size="14.00" fill="white"> &#160;&#160;&#160;&#160;&#160;&#160;&#160;&#160;&#160;&#160;&#160;</text>
<text text-anchor="middle" x="95.0299" y="-138.596" font-family="Courier,monospace" font-size="14.00" fill="white">Eth0/0</text>
<text text-anchor="middle" x="167.675" y="-66.5195" font-family="Courier,monospace" font-size="14.00" fill="white">Eth0/3</text>
</g>
<!-- R1 -->
<g id="node4" class="node"><title>R1</title>
<polygon fill="#006699" stroke="#006699" points="277.391,-223 200.391,-223 200.391,-150 277.391,-150 277.391,-223"/>
<text text-anchor="middle" x="238.891" y="-182.8" font-family="Helvetica,sans-Serif" font-size="14.00" fill="white">R1</text>
</g>
<!-- SW1&#45;&#45;R1 -->
<g id="edge2" class="edge"><title>SW1&#45;&#45;R1</title>
<path fill="none" stroke="green" stroke-dasharray="5,2" d="M238.891,-99.1154C238.891,-115.01 238.891,-133.704 238.891,-149.629"/>
<text text-anchor="middle" x="288.891" y="-120.8" font-family="Courier,monospace" font-size="14.00" fill="white"> &#160;&#160;&#160;&#160;&#160;&#160;&#160;&#160;&#160;&#160;&#160;</text>
<text text-anchor="middle" x="213.891" y="-138.429" font-family="Courier,monospace" font-size="14.00" fill="white">Eth0/0</text>
<text text-anchor="middle" x="213.891" y="-102.915" font-family="Courier,monospace" font-size="14.00" fill="white">Eth0/1</text>
</g>
<!-- R2 -->
<g id="node6" class="node"><title>R2</title>
<polygon fill="#006699" stroke="#006699" points="400.391,-223 323.391,-223 323.391,-150 400.391,-150 400.391,-223"/>
<text text-anchor="middle" x="361.891" y="-182.8" font-family="Helvetica,sans-Serif" font-size="14.00" fill="white">R2</text>
</g>
<!-- SW1&#45;&#45;R2 -->
<g id="edge5" class="edge"><title>SW1&#45;&#45;R2</title>
<path fill="none" stroke="green" stroke-dasharray="5,2" d="M285.008,-78.9531C304.317,-87.4821 325.558,-99.8863 339.891,-117 347.67,-126.288 352.713,-138.373 355.976,-149.8"/>
<text text-anchor="middle" x="399.891" y="-120.8" font-family="Courier,monospace" font-size="14.00" fill="white"> &#160;&#160;&#160;&#160;&#160;&#160;&#160;&#160;&#160;&#160;&#160;</text>
<text text-anchor="middle" x="330.976" y="-138.6" font-family="Courier,monospace" font-size="14.00" fill="white">Eth0/0</text>
<text text-anchor="middle" x="310.008" y="-67.7531" font-family="Courier,monospace" font-size="14.00" fill="white">Eth0/2</text>
</g>
<!-- SW2 -->
<g id="node7" class="node"><title>SW2</title>
<polygon fill="#006699" stroke="#006699" points="407.891,-347 315.891,-347 315.891,-274 407.891,-274 407.891,-347"/>
<text text-anchor="middle" x="361.891" y="-306.8" font-family="Helvetica,sans-Serif" font-size="14.00" fill="white">SW2</text>
</g>
<!-- R2&#45;&#45;SW2 -->
<g id="edge6" class="edge"><title>R2&#45;&#45;SW2</title>
<path fill="none" stroke="green" stroke-dasharray="5,2" d="M361.891,-223.115C361.891,-239.01 361.891,-257.704 361.891,-273.629"/>
<text text-anchor="middle" x="411.891" y="-244.8" font-family="Courier,monospace" font-size="14.00" fill="white"> &#160;&#160;&#160;&#160;&#160;&#160;&#160;&#160;&#160;&#160;&#160;</text>
<text text-anchor="middle" x="332.891" y="-262.429" font-family="Courier,monospace" font-size="14.00" fill="white">Eth0/11</text>
<text text-anchor="middle" x="336.891" y="-226.915" font-family="Courier,monospace" font-size="14.00" fill="white">Eth0/1</text>
</g>
</g>
</svg>
