<?xml version="1.0" encoding="UTF-8" standalone="no"?>
<!DOCTYPE svg PUBLIC "-//W3C//DTD SVG 1.1//EN"
 "http://www.w3.org/Graphics/SVG/1.1/DTD/svg11.dtd">
<!-- Generated by graphviz version 2.38.0 (20140413.2041)
 -->
<!-- Title: %3 Pages: 1 -->
<svg width="584pt" height="603pt"
 viewBox="0.00 0.00 584.00 603.00" xmlns="http://www.w3.org/2000/svg" xmlns:xlink="http://www.w3.org/1999/xlink">
<g id="graph0" class="graph" transform="scale(1 1) rotate(0) translate(4 599)">
<title>%3</title>
<polygon fill="#333333" stroke="none" points="-4,4 -4,-599 580,-599 580,4 -4,4"/>
<text text-anchor="middle" x="288" y="-9.2" font-family="Times,serif" font-size="16.00" fill="white">Network Map</text>
<!-- R5 -->
<g id="node1" class="node"><title>R5</title>
<polygon fill="#006699" stroke="#006699" points="166.5,-99 89.5,-99 89.5,-26 166.5,-26 166.5,-99"/>
<text text-anchor="middle" x="128" y="-58.8" font-family="Helvetica,sans-Serif" font-size="14.00" fill="white">R5</text>
</g>
<!-- R2 -->
<g id="node2" class="node"><title>R2</title>
<polygon fill="#006699" stroke="#006699" points="305.5,-223 228.5,-223 228.5,-150 305.5,-150 305.5,-223"/>
<text text-anchor="middle" x="267" y="-182.8" font-family="Helvetica,sans-Serif" font-size="14.00" fill="white">R2</text>
</g>
<!-- R5&#45;&#45;R2 -->
<g id="edge1" class="edge"><title>R5&#45;&#45;R2</title>
<path fill="none" stroke="green" stroke-dasharray="5,2" d="M145.726,-99.0979C152.555,-110.518 161.121,-122.623 171,-132 187.468,-147.631 209.37,-160.29 228.095,-169.363"/>
<text text-anchor="middle" x="221" y="-120.8" font-family="Courier,monospace" font-size="14.00" fill="white"> &#160;&#160;&#160;&#160;&#160;&#160;&#160;&#160;&#160;&#160;&#160;</text>
<text text-anchor="middle" x="203.095" y="-158.163" font-family="Courier,monospace" font-size="14.00" fill="white">Eth0/1</text>
<text text-anchor="middle" x="170.726" y="-102.898" font-family="Courier,monospace" font-size="14.00" fill="white">Eth0/0</text>
</g>
<!-- SW1 -->
<g id="node6" class="node"><title>SW1</title>
<polygon fill="#006699" stroke="#006699" points="413,-347 321,-347 321,-274 413,-274 413,-347"/>
<text text-anchor="middle" x="367" y="-306.8" font-family="Helvetica,sans-Serif" font-size="14.00" fill="white">SW1</text>
</g>
<!-- R2&#45;&#45;SW1 -->
<g id="edge5" class="edge"><title>R2&#45;&#45;SW1</title>
<path fill="none" stroke="green" stroke-dasharray="5,2" d="M305.899,-203.607C322.47,-212.345 340.575,-224.733 352,-241 358.717,-250.564 362.506,-262.588 364.618,-273.882"/>
<text text-anchor="middle" x="410" y="-244.8" font-family="Courier,monospace" font-size="14.00" fill="white"> &#160;&#160;&#160;&#160;&#160;&#160;&#160;&#160;&#160;&#160;&#160;</text>
<text text-anchor="middle" x="339.618" y="-262.682" font-family="Courier,monospace" font-size="14.00" fill="white">Eth0/2</text>
<text text-anchor="middle" x="330.899" y="-192.407" font-family="Courier,monospace" font-size="14.00" fill="white">Eth0/0</text>
</g>
<!-- SW2 -->
<g id="node8" class="node"><title>SW2</title>
<polygon fill="#006699" stroke="#006699" points="297,-347 205,-347 205,-274 297,-274 297,-347"/>
<text text-anchor="middle" x="251" y="-306.8" font-family="Helvetica,sans-Serif" font-size="14.00" fill="white">SW2</text>
</g>
<!-- R2&#45;&#45;SW2 -->
<g id="edge8" class="edge"><title>R2&#45;&#45;SW2</title>
<path fill="none" stroke="green" stroke-dasharray="5,2" d="M255.619,-223.198C254.138,-229.091 252.844,-235.177 252,-241 250.464,-251.594 249.885,-263.205 249.779,-273.809"/>
<text text-anchor="middle" x="302" y="-244.8" font-family="Courier,monospace" font-size="14.00" fill="white"> &#160;&#160;&#160;&#160;&#160;&#160;&#160;&#160;&#160;&#160;&#160;</text>
<text text-anchor="middle" x="220.779" y="-262.609" font-family="Courier,monospace" font-size="14.00" fill="white">Eth0/11</text>
<text text-anchor="middle" x="230.619" y="-226.998" font-family="Courier,monospace" font-size="14.00" fill="white">Eth0/1</text>
</g>
<!-- R3 -->
<g id="node3" class="node"><title>R3</title>
<polygon fill="#006699" stroke="#006699" points="205.5,-471 128.5,-471 128.5,-398 205.5,-398 205.5,-471"/>
<text text-anchor="middle" x="167" y="-430.8" font-family="Helvetica,sans-Serif" font-size="14.00" fill="white">R3</text>
</g>
<!-- R3&#45;&#45;R5 -->
<g id="edge7" class="edge"><title>R3&#45;&#45;R5</title>
<path fill="none" stroke="green" stroke-dasharray="5,2" d="M162.833,-397.818C158.683,-361.987 152.198,-305.189 147,-256 141.229,-201.397 135.08,-138.019 131.389,-99.3484"/>
<text text-anchor="middle" x="197" y="-244.8" font-family="Courier,monospace" font-size="14.00" fill="white"> &#160;&#160;&#160;&#160;&#160;&#160;&#160;&#160;&#160;&#160;&#160;</text>
<text text-anchor="middle" x="106.389" y="-103.148" font-family="Courier,monospace" font-size="14.00" fill="white">Eth0/0</text>
<text text-anchor="middle" x="137.833" y="-386.618" font-family="Courier,monospace" font-size="14.00" fill="white">Eth0/2</text>
</g>
<!-- R4 -->
<g id="node4" class="node"><title>R4</title>
<polygon fill="#006699" stroke="#006699" points="205.5,-595 128.5,-595 128.5,-522 205.5,-522 205.5,-595"/>
<text text-anchor="middle" x="167" y="-554.8" font-family="Helvetica,sans-Serif" font-size="14.00" fill="white">R4</text>
</g>
<!-- R3&#45;&#45;R4 -->
<g id="edge2" class="edge"><title>R3&#45;&#45;R4</title>
<path fill="none" stroke="green" stroke-dasharray="5,2" d="M167,-471.115C167,-487.01 167,-505.704 167,-521.629"/>
<text text-anchor="middle" x="217" y="-492.8" font-family="Courier,monospace" font-size="14.00" fill="white"> &#160;&#160;&#160;&#160;&#160;&#160;&#160;&#160;&#160;&#160;&#160;</text>
<text text-anchor="middle" x="142" y="-510.429" font-family="Courier,monospace" font-size="14.00" fill="white">Eth0/0</text>
<text text-anchor="middle" x="142" y="-474.915" font-family="Courier,monospace" font-size="14.00" fill="white">Eth0/1</text>
</g>
<!-- R4&#45;&#45;R5 -->
<g id="edge10" class="edge"><title>R4&#45;&#45;R5</title>
<path fill="none" stroke="green" stroke-dasharray="5,2" d="M128.267,-547.718C78.9336,-532.66 0,-498.694 0,-435.5 0,-185.5 0,-185.5 0,-185.5 0,-135.614 51.5747,-99.9025 89.2484,-80.4712"/>
<text text-anchor="middle" x="50" y="-306.8" font-family="Courier,monospace" font-size="14.00" fill="white"> &#160;&#160;&#160;&#160;&#160;&#160;&#160;&#160;&#160;&#160;&#160;</text>
<text text-anchor="middle" x="64.2484" y="-69.2712" font-family="Courier,monospace" font-size="14.00" fill="white">Eth0/1</text>
<text text-anchor="middle" x="103.267" y="-536.518" font-family="Courier,monospace" font-size="14.00" fill="white">Eth0/1</text>
</g>
<!-- R4&#45;&#45;SW1 -->
<g id="edge6" class="edge"><title>R4&#45;&#45;SW1</title>
<path fill="none" stroke="green" stroke-dasharray="5,2" d="M205.555,-544.516C226.941,-535.763 252.809,-522.42 271,-504 315.479,-458.961 343.144,-389.173 356.76,-347.155"/>
<text text-anchor="middle" x="388" y="-430.8" font-family="Courier,monospace" font-size="14.00" fill="white"> &#160;&#160;&#160;&#160;&#160;&#160;&#160;&#160;&#160;&#160;&#160;</text>
<text text-anchor="middle" x="331.76" y="-350.955" font-family="Courier,monospace" font-size="14.00" fill="white">Eth0/4</text>
<text text-anchor="middle" x="230.555" y="-533.316" font-family="Courier,monospace" font-size="14.00" fill="white">Eth0/0</text>
</g>
<!-- R1 -->
<g id="node5" class="node"><title>R1</title>
<polygon fill="#006699" stroke="#006699" points="535.5,-223 458.5,-223 458.5,-150 535.5,-150 535.5,-223"/>
<text text-anchor="middle" x="497" y="-182.8" font-family="Helvetica,sans-Serif" font-size="14.00" fill="white">R1</text>
</g>
<!-- R1&#45;&#45;SW1 -->
<g id="edge3" class="edge"><title>R1&#45;&#45;SW1</title>
<path fill="none" stroke="green" stroke-dasharray="5,2" d="M484.809,-223.186C479.671,-234.613 472.801,-246.7 464,-256 449.988,-270.806 430.949,-282.524 413.448,-291.172"/>
<text text-anchor="middle" x="526" y="-244.8" font-family="Courier,monospace" font-size="14.00" fill="white"> &#160;&#160;&#160;&#160;&#160;&#160;&#160;&#160;&#160;&#160;&#160;</text>
<text text-anchor="middle" x="438.448" y="-279.972" font-family="Courier,monospace" font-size="14.00" fill="white">Eth0/1</text>
<text text-anchor="middle" x="459.809" y="-226.986" font-family="Courier,monospace" font-size="14.00" fill="white">Eth0/0</text>
</g>
<!-- SW1&#45;&#45;R3 -->
<g id="edge9" class="edge"><title>SW1&#45;&#45;R3</title>
<path fill="none" stroke="green" stroke-dasharray="5,2" d="M320.748,-340.275C315.864,-342.748 310.893,-345.047 306,-347 273.761,-359.869 259.952,-347.455 230,-365 215.919,-373.248 203.143,-385.65 192.833,-397.645"/>
<text text-anchor="middle" x="280" y="-368.8" font-family="Courier,monospace" font-size="14.00" fill="white"> &#160;&#160;&#160;&#160;&#160;&#160;&#160;&#160;&#160;&#160;&#160;</text>
<text text-anchor="middle" x="217.833" y="-386.445" font-family="Courier,monospace" font-size="14.00" fill="white">Eth0/0</text>
<text text-anchor="middle" x="295.748" y="-344.075" font-family="Courier,monospace" font-size="14.00" fill="white">Eth0/3</text>
</g>
<!-- R6 -->
<g id="node7" class="node"><title>R6</title>
<polygon fill="#006699" stroke="#006699" points="322.5,-99 245.5,-99 245.5,-26 322.5,-26 322.5,-99"/>
<text text-anchor="middle" x="284" y="-58.8" font-family="Helvetica,sans-Serif" font-size="14.00" fill="white">R6</text>
</g>
<!-- R6&#45;&#45;R2 -->
<g id="edge4" class="edge"><title>R6&#45;&#45;R2</title>
<path fill="none" stroke="green" stroke-dasharray="5,2" d="M279.037,-99.1154C276.822,-115.01 274.217,-133.704 271.998,-149.629"/>
<text text-anchor="middle" x="327" y="-120.8" font-family="Courier,monospace" font-size="14.00" fill="white"> &#160;&#160;&#160;&#160;&#160;&#160;&#160;&#160;&#160;&#160;&#160;</text>
<text text-anchor="middle" x="246.998" y="-138.429" font-family="Courier,monospace" font-size="14.00" fill="white">Eth0/2</text>
<text text-anchor="middle" x="254.037" y="-102.915" font-family="Courier,monospace" font-size="14.00" fill="white">Eth0/1</text>
</g>
</g>
</svg>
